<?xml version="1.0" encoding="UTF-8" standalone="no"?>
<!-- Created with Inkscape (http://www.inkscape.org/) -->

<svg
   xmlns:dc="http://purl.org/dc/elements/1.1/"
   xmlns:cc="http://creativecommons.org/ns#"
   xmlns:rdf="http://www.w3.org/1999/02/22-rdf-syntax-ns#"
   xmlns:svg="http://www.w3.org/2000/svg"
   xmlns="http://www.w3.org/2000/svg"
   xmlns:sodipodi="http://sodipodi.sourceforge.net/DTD/sodipodi-0.dtd"
   xmlns:inkscape="http://www.inkscape.org/namespaces/inkscape"
   version="1.1"
   id="svg1077"
   xml:space="preserve"
   width="816"
   height="1056"
   viewBox="0 0 816 1056"
   sodipodi:docname="purple-polygonal-pattern.svg"
   inkscape:version="0.92.4 (5da689c313, 2019-01-14)"><metadata
     id="metadata1083"><rdf:RDF><cc:Work
         rdf:about=""><dc:format>image/svg+xml</dc:format><dc:type
           rdf:resource="http://purl.org/dc/dcmitype/StillImage" /><dc:title></dc:title></cc:Work></rdf:RDF></metadata><defs
     id="defs1081"><clipPath
       clipPathUnits="userSpaceOnUse"
       id="clipPath1093"><path
         d="M 0,792 H 612 V 0 H 0 Z"
         id="path1091"
         inkscape:connector-curvature="0" /></clipPath></defs><sodipodi:namedview
     pagecolor="#ffffff"
     bordercolor="#666666"
     borderopacity="1"
     objecttolerance="10"
     gridtolerance="10"
     guidetolerance="10"
     inkscape:pageopacity="0"
     inkscape:pageshadow="2"
     inkscape:window-width="1920"
     inkscape:window-height="1018"
     id="namedview1079"
     showgrid="false"
     inkscape:zoom="0.63885063"
     inkscape:cx="604.0678"
     inkscape:cy="472.0678"
     inkscape:window-x="-8"
     inkscape:window-y="-8"
     inkscape:window-maximized="1"
     inkscape:current-layer="g1085" /><g
     id="g1085"
     inkscape:groupmode="layer"
     inkscape:label="abstract-304-publicdomainvectors [Converted]"
     transform="matrix(1.3333333,0,0,-1.3333333,0,1056)"><g
       id="g1087"><g
         id="g1089"
         clip-path="url(#clipPath1093)"><path
           d="m 0.164,699.824 c 19.65,8.199 33.662,14.046 33.662,14.046 0,0 -14.086,8.317 -33.662,19.877 z"
           style="fill:#a193cd;fill-opacity:1;fill-rule:nonzero;stroke:none"
           id="path1095"
           inkscape:connector-curvature="0" /><path
           d="m 0.164,699.824 c 19.65,8.199 33.662,14.046 33.662,14.046 0,0 -14.086,8.317 -33.662,19.877 z"
           style="fill:none;stroke:#a193cd;stroke-width:1;stroke-linecap:butt;stroke-linejoin:miter;stroke-miterlimit:4;stroke-dasharray:none;stroke-opacity:1"
           id="path1097"
           inkscape:connector-curvature="0" /><path
           d="m 0.164,791.708 v -57.961 c 19.576,-11.56 33.662,-19.877 33.662,-19.877 0,0 0.973,37.925 1.998,77.838 z"
           style="fill:#ae96ce;fill-opacity:1;fill-rule:nonzero;stroke:none"
           id="path1099"
           inkscape:connector-curvature="0" /><path
           d="m 0.164,791.708 v -57.961 c 19.576,-11.56 33.662,-19.877 33.662,-19.877 0,0 0.973,37.925 1.998,77.838 z"
           style="fill:none;stroke:#ae96ce;stroke-width:1;stroke-linecap:butt;stroke-linejoin:miter;stroke-miterlimit:4;stroke-dasharray:none;stroke-opacity:1"
           id="path1101"
           inkscape:connector-curvature="0" /><path
           d="m 35.824,791.708 c -1.025,-39.913 -1.998,-77.838 -1.998,-77.838 0,0 64.293,44.529 112.387,77.838 z"
           style="fill:#ac8cc7;fill-opacity:1;fill-rule:nonzero;stroke:none"
           id="path1103"
           inkscape:connector-curvature="0" /><path
           d="m 35.824,791.708 c -1.025,-39.913 -1.998,-77.838 -1.998,-77.838 0,0 64.293,44.529 112.387,77.838 z"
           style="fill:none;stroke:#ac8cc7;stroke-width:1;stroke-linecap:butt;stroke-linejoin:miter;stroke-miterlimit:4;stroke-dasharray:none;stroke-opacity:1"
           id="path1105"
           inkscape:connector-curvature="0" /><path
           d="M 146.213,791.708 C 98.119,758.399 33.826,713.87 33.826,713.87 l 146.43,-12.049 c 0,0 7.404,52.735 12.619,89.887 z"
           style="fill:#a181c2;fill-opacity:1;fill-rule:nonzero;stroke:none"
           id="path1107"
           inkscape:connector-curvature="0" /><path
           d="M 146.213,791.708 C 98.119,758.399 33.826,713.87 33.826,713.87 l 146.43,-12.049 c 0,0 7.404,52.735 12.619,89.887 z"
           style="fill:none;stroke:#a181c2;stroke-width:1;stroke-linecap:butt;stroke-linejoin:miter;stroke-miterlimit:4;stroke-dasharray:none;stroke-opacity:1"
           id="path1109"
           inkscape:connector-curvature="0" /><path
           d="m 192.875,791.708 c -5.215,-37.152 -12.619,-89.887 -12.619,-89.887 0,0 117.639,65.65 161.069,89.887 z"
           style="fill:#9983bd;fill-opacity:1;fill-rule:nonzero;stroke:none"
           id="path1111"
           inkscape:connector-curvature="0" /><path
           d="m 192.875,791.708 c -5.215,-37.152 -12.619,-89.887 -12.619,-89.887 0,0 117.639,65.65 161.069,89.887 z"
           style="fill:none;stroke:#9983bd;stroke-width:1;stroke-linecap:butt;stroke-linejoin:miter;stroke-miterlimit:4;stroke-dasharray:none;stroke-opacity:1"
           id="path1113"
           inkscape:connector-curvature="0" /><path
           d="M 341.325,791.708 C 297.895,767.471 180.256,701.821 180.256,701.821 l 185.049,8.924 c 0,0 -5.272,58.309 -7.32,80.963 z"
           style="fill:#8e7db8;fill-opacity:1;fill-rule:nonzero;stroke:none"
           id="path1115"
           inkscape:connector-curvature="0" /><path
           d="M 341.325,791.708 C 297.895,767.471 180.256,701.821 180.256,701.821 l 185.049,8.924 c 0,0 -5.272,58.309 -7.32,80.963 z"
           style="fill:none;stroke:#8e7db8;stroke-width:1;stroke-linecap:butt;stroke-linejoin:miter;stroke-miterlimit:4;stroke-dasharray:none;stroke-opacity:1"
           id="path1117"
           inkscape:connector-curvature="0" /><path
           d="m 357.985,791.708 c 2.048,-22.654 7.32,-80.963 7.32,-80.963 l 113.099,-22.886 c 0,0 -83.114,77.274 -111.698,103.849 z"
           style="fill:#817db1;fill-opacity:1;fill-rule:nonzero;stroke:none"
           id="path1119"
           inkscape:connector-curvature="0" /><path
           d="m 357.985,791.708 c 2.048,-22.654 7.32,-80.963 7.32,-80.963 l 113.099,-22.886 c 0,0 -83.114,77.274 -111.698,103.849 z"
           style="fill:none;stroke:#817db1;stroke-width:1;stroke-linecap:butt;stroke-linejoin:miter;stroke-miterlimit:4;stroke-dasharray:none;stroke-opacity:1"
           id="path1121"
           inkscape:connector-curvature="0" /><path
           d="m 366.706,791.708 c 28.584,-26.575 111.698,-103.849 111.698,-103.849 0,0 12.883,56.247 23.786,103.849 z"
           style="fill:#8483ac;fill-opacity:1;fill-rule:nonzero;stroke:none"
           id="path1123"
           inkscape:connector-curvature="0" /><path
           d="m 366.706,791.708 c 28.584,-26.575 111.698,-103.849 111.698,-103.849 0,0 12.883,56.247 23.786,103.849 z"
           style="fill:none;stroke:#8483ac;stroke-width:1;stroke-linecap:butt;stroke-linejoin:miter;stroke-miterlimit:4;stroke-dasharray:none;stroke-opacity:1"
           id="path1125"
           inkscape:connector-curvature="0" /><path
           d="m 613.125,739.597 c -13.024,15.913 -28.231,34.493 -42.651,52.111 H 502.19 c -10.903,-47.602 -23.786,-103.849 -23.786,-103.849 0,0 85.504,5.265 134.721,8.294 z"
           style="fill:#7281a3;fill-opacity:1;fill-rule:nonzero;stroke:none"
           id="path1127"
           inkscape:connector-curvature="0" /><path
           d="m 613.125,739.597 c -13.024,15.913 -28.231,34.493 -42.651,52.111 H 502.19 c -10.903,-47.602 -23.786,-103.849 -23.786,-103.849 0,0 85.504,5.265 134.721,8.294 z"
           style="fill:none;stroke:#7281a3;stroke-width:1;stroke-linecap:butt;stroke-linejoin:miter;stroke-miterlimit:4;stroke-dasharray:none;stroke-opacity:1"
           id="path1129"
           inkscape:connector-curvature="0" /><path
           d="m 613.125,791.708 h -42.651 c 14.42,-17.618 29.627,-36.198 42.651,-52.111 z"
           style="fill:#74879b;fill-opacity:1;fill-rule:nonzero;stroke:none"
           id="path1131"
           inkscape:connector-curvature="0" /><path
           d="m 613.125,791.708 h -42.651 c 14.42,-17.618 29.627,-36.198 42.651,-52.111 z"
           style="fill:none;stroke:#74879b;stroke-width:1;stroke-linecap:butt;stroke-linejoin:miter;stroke-miterlimit:4;stroke-dasharray:none;stroke-opacity:1"
           id="path1133"
           inkscape:connector-curvature="0" /><path
           d="m 0.164,536.612 c 33.096,1.157 59.181,2.069 59.181,2.069 0,0 -26.434,15.887 -59.181,35.569 z"
           style="fill:#9b73bf;fill-opacity:1;fill-rule:nonzero;stroke:none"
           id="path1135"
           inkscape:connector-curvature="0" /><path
           d="m 0.164,536.612 c 33.096,1.157 59.181,2.069 59.181,2.069 0,0 -26.434,15.887 -59.181,35.569 z"
           style="fill:none;stroke:#9b73bf;stroke-width:1;stroke-linecap:butt;stroke-linejoin:miter;stroke-miterlimit:4;stroke-dasharray:none;stroke-opacity:1"
           id="path1137"
           inkscape:connector-curvature="0" /><path
           d="M 0.164,574.25 C 32.911,554.568 59.345,538.681 59.345,538.681 L 33.826,713.87 c 0,0 -14.012,-5.847 -33.662,-14.046 z"
           style="fill:#9a7bc2;fill-opacity:1;fill-rule:nonzero;stroke:none"
           id="path1139"
           inkscape:connector-curvature="0" /><path
           d="M 0.164,574.25 C 32.911,554.568 59.345,538.681 59.345,538.681 L 33.826,713.87 c 0,0 -14.012,-5.847 -33.662,-14.046 z"
           style="fill:none;stroke:#9a7bc2;stroke-width:1;stroke-linecap:butt;stroke-linejoin:miter;stroke-miterlimit:4;stroke-dasharray:none;stroke-opacity:1"
           id="path1141"
           inkscape:connector-curvature="0" /><path
           d="M 33.826,713.87 59.345,538.681 180.256,701.821 Z"
           style="fill:#9a73be;fill-opacity:1;fill-rule:nonzero;stroke:none"
           id="path1143"
           inkscape:connector-curvature="0" /><path
           d="M 33.826,713.87 59.345,538.681 180.256,701.821 Z"
           style="fill:none;stroke:#9a73be;stroke-width:1;stroke-linecap:butt;stroke-linejoin:miter;stroke-miterlimit:4;stroke-dasharray:none;stroke-opacity:1"
           id="path1145"
           inkscape:connector-curvature="0" /><path
           d="M 180.256,701.821 59.345,538.681 229.304,502.253 Z"
           style="fill:#965fb5;fill-opacity:1;fill-rule:nonzero;stroke:none"
           id="path1147"
           inkscape:connector-curvature="0" /><path
           d="M 180.256,701.821 59.345,538.681 229.304,502.253 Z"
           style="fill:none;stroke:#965fb5;stroke-width:1;stroke-linecap:butt;stroke-linejoin:miter;stroke-miterlimit:4;stroke-dasharray:none;stroke-opacity:1"
           id="path1149"
           inkscape:connector-curvature="0" /><path
           d="m 180.256,701.821 49.048,-199.568 137.807,50.773 z"
           style="fill:#8b60af;fill-opacity:1;fill-rule:nonzero;stroke:none"
           id="path1151"
           inkscape:connector-curvature="0" /><path
           d="m 180.256,701.821 49.048,-199.568 137.807,50.773 z"
           style="fill:none;stroke:#8b60af;stroke-width:1;stroke-linecap:butt;stroke-linejoin:miter;stroke-miterlimit:4;stroke-dasharray:none;stroke-opacity:1"
           id="path1153"
           inkscape:connector-curvature="0" /><path
           d="M 180.256,701.821 367.111,553.026 365.305,710.745 Z"
           style="fill:#866eb3;fill-opacity:1;fill-rule:nonzero;stroke:none"
           id="path1155"
           inkscape:connector-curvature="0" /><path
           d="M 180.256,701.821 367.111,553.026 365.305,710.745 Z"
           style="fill:none;stroke:#866eb3;stroke-width:1;stroke-linecap:butt;stroke-linejoin:miter;stroke-miterlimit:4;stroke-dasharray:none;stroke-opacity:1"
           id="path1157"
           inkscape:connector-curvature="0" /><path
           d="m 365.305,710.745 1.806,-157.719 110.903,24.514 z"
           style="fill:#7966a7;fill-opacity:1;fill-rule:nonzero;stroke:none"
           id="path1159"
           inkscape:connector-curvature="0" /><path
           d="m 365.305,710.745 1.806,-157.719 110.903,24.514 z"
           style="fill:none;stroke:#7966a7;stroke-width:1;stroke-linecap:butt;stroke-linejoin:miter;stroke-miterlimit:4;stroke-dasharray:none;stroke-opacity:1"
           id="path1161"
           inkscape:connector-curvature="0" /><path
           d="m 365.305,710.745 112.709,-133.205 0.39,110.319 z"
           style="fill:#7770a8;fill-opacity:1;fill-rule:nonzero;stroke:none"
           id="path1163"
           inkscape:connector-curvature="0" /><path
           d="m 365.305,710.745 112.709,-133.205 0.39,110.319 z"
           style="fill:none;stroke:#7770a8;stroke-width:1;stroke-linecap:butt;stroke-linejoin:miter;stroke-miterlimit:4;stroke-dasharray:none;stroke-opacity:1"
           id="path1165"
           inkscape:connector-curvature="0" /><path
           d="M 613.125,560.575 C 591.711,580.807 478.404,687.859 478.404,687.859 l -0.39,-110.319 c 0,0 113.661,-16.602 135.111,-19.735 z"
           style="fill:#6d669a;fill-opacity:1;fill-rule:nonzero;stroke:none"
           id="path1167"
           inkscape:connector-curvature="0" /><path
           d="M 613.125,560.575 C 591.711,580.807 478.404,687.859 478.404,687.859 l -0.39,-110.319 c 0,0 113.661,-16.602 135.111,-19.735 z"
           style="fill:none;stroke:#6d669a;stroke-width:1;stroke-linecap:butt;stroke-linejoin:miter;stroke-miterlimit:4;stroke-dasharray:none;stroke-opacity:1"
           id="path1169"
           inkscape:connector-curvature="0" /><path
           d="m 613.125,696.153 c -49.217,-3.029 -134.721,-8.294 -134.721,-8.294 0,0 113.307,-107.052 134.721,-127.284 z"
           style="fill:#656f98;fill-opacity:1;fill-rule:nonzero;stroke:none"
           id="path1171"
           inkscape:connector-curvature="0" /><path
           d="m 613.125,696.153 c -49.217,-3.029 -134.721,-8.294 -134.721,-8.294 0,0 113.307,-107.052 134.721,-127.284 z"
           style="fill:none;stroke:#656f98;stroke-width:1;stroke-linecap:butt;stroke-linejoin:miter;stroke-miterlimit:4;stroke-dasharray:none;stroke-opacity:1"
           id="path1173"
           inkscape:connector-curvature="0" /><path
           d="m 0.164,450.99 c 28.778,42.642 59.181,87.691 59.181,87.691 0,0 -26.085,-0.912 -59.181,-2.069 z"
           style="fill:#9b5bb3;fill-opacity:1;fill-rule:nonzero;stroke:none"
           id="path1175"
           inkscape:connector-curvature="0" /><path
           d="m 0.164,450.99 c 28.778,42.642 59.181,87.691 59.181,87.691 0,0 -26.085,-0.912 -59.181,-2.069 z"
           style="fill:none;stroke:#9b5bb3;stroke-width:1;stroke-linecap:butt;stroke-linejoin:miter;stroke-miterlimit:4;stroke-dasharray:none;stroke-opacity:1"
           id="path1177"
           inkscape:connector-curvature="0" /><path
           d="m 0.164,371.941 c 30.879,-2.668 64.517,-5.573 64.517,-5.573 l -5.336,172.313 c 0,0 -30.403,-45.049 -59.181,-87.691 z"
           style="fill:#9948a9;fill-opacity:1;fill-rule:nonzero;stroke:none"
           id="path1179"
           inkscape:connector-curvature="0" /><path
           d="m 0.164,371.941 c 30.879,-2.668 64.517,-5.573 64.517,-5.573 l -5.336,172.313 c 0,0 -30.403,-45.049 -59.181,-87.691 z"
           style="fill:none;stroke:#9948a9;stroke-width:1;stroke-linecap:butt;stroke-linejoin:miter;stroke-miterlimit:4;stroke-dasharray:none;stroke-opacity:1"
           id="path1181"
           inkscape:connector-curvature="0" /><path
           d="M 59.345,538.681 64.681,366.368 229.304,502.253 Z"
           style="fill:#9947a8;fill-opacity:1;fill-rule:nonzero;stroke:none"
           id="path1183"
           inkscape:connector-curvature="0" /><path
           d="M 59.345,538.681 64.681,366.368 229.304,502.253 Z"
           style="fill:none;stroke:#9947a8;stroke-width:1;stroke-linecap:butt;stroke-linejoin:miter;stroke-miterlimit:4;stroke-dasharray:none;stroke-opacity:1"
           id="path1185"
           inkscape:connector-curvature="0" /><path
           d="M 229.304,502.253 64.681,366.368 235.394,408.587 Z"
           style="fill:#943ba0;fill-opacity:1;fill-rule:nonzero;stroke:none"
           id="path1187"
           inkscape:connector-curvature="0" /><path
           d="M 229.304,502.253 64.681,366.368 235.394,408.587 Z"
           style="fill:none;stroke:#943ba0;stroke-width:1;stroke-linecap:butt;stroke-linejoin:miter;stroke-miterlimit:4;stroke-dasharray:none;stroke-opacity:1"
           id="path1189"
           inkscape:connector-curvature="0" /><path
           d="m 229.304,502.253 6.09,-93.666 101.516,-24.475 z"
           style="fill:#8a3d9c;fill-opacity:1;fill-rule:nonzero;stroke:none"
           id="path1191"
           inkscape:connector-curvature="0" /><path
           d="m 229.304,502.253 6.09,-93.666 101.516,-24.475 z"
           style="fill:none;stroke:#8a3d9c;stroke-width:1;stroke-linecap:butt;stroke-linejoin:miter;stroke-miterlimit:4;stroke-dasharray:none;stroke-opacity:1"
           id="path1193"
           inkscape:connector-curvature="0" /><path
           d="M 229.304,502.253 336.91,384.112 367.111,553.026 Z"
           style="fill:#86479f;fill-opacity:1;fill-rule:nonzero;stroke:none"
           id="path1195"
           inkscape:connector-curvature="0" /><path
           d="M 229.304,502.253 336.91,384.112 367.111,553.026 Z"
           style="fill:none;stroke:#86479f;stroke-width:1;stroke-linecap:butt;stroke-linejoin:miter;stroke-miterlimit:4;stroke-dasharray:none;stroke-opacity:1"
           id="path1197"
           inkscape:connector-curvature="0" /><path
           d="M 367.111,553.026 336.91,384.112 466.182,363.435 Z"
           style="fill:#7c3e93;fill-opacity:1;fill-rule:nonzero;stroke:none"
           id="path1199"
           inkscape:connector-curvature="0" /><path
           d="M 367.111,553.026 336.91,384.112 466.182,363.435 Z"
           style="fill:none;stroke:#7c3e93;stroke-width:1;stroke-linecap:butt;stroke-linejoin:miter;stroke-miterlimit:4;stroke-dasharray:none;stroke-opacity:1"
           id="path1201"
           inkscape:connector-curvature="0" /><path
           d="M 367.111,553.026 466.182,363.435 478.014,577.54 Z"
           style="fill:#784d96;fill-opacity:1;fill-rule:nonzero;stroke:none"
           id="path1203"
           inkscape:connector-curvature="0" /><path
           d="M 367.111,553.026 466.182,363.435 478.014,577.54 Z"
           style="fill:none;stroke:#784d96;stroke-width:1;stroke-linecap:butt;stroke-linejoin:miter;stroke-miterlimit:4;stroke-dasharray:none;stroke-opacity:1"
           id="path1205"
           inkscape:connector-curvature="0" /><path
           d="m 613.125,557.805 c -21.45,3.133 -135.111,19.735 -135.111,19.735 L 466.182,363.435 c 0,0 124.434,160.38 146.943,189.392 z"
           style="fill:#6f4f8d;fill-opacity:1;fill-rule:nonzero;stroke:none"
           id="path1207"
           inkscape:connector-curvature="0" /><path
           d="m 613.125,557.805 c -21.45,3.133 -135.111,19.735 -135.111,19.735 L 466.182,363.435 c 0,0 124.434,160.38 146.943,189.392 z"
           style="fill:none;stroke:#6f4f8d;stroke-width:1;stroke-linecap:butt;stroke-linejoin:miter;stroke-miterlimit:4;stroke-dasharray:none;stroke-opacity:1"
           id="path1209"
           inkscape:connector-curvature="0" /><path
           d="M 613.125,552.827 C 590.616,523.815 466.182,363.435 466.182,363.435 c 0,0 90.232,27.294 146.943,44.448 z"
           style="fill:#684481;fill-opacity:1;fill-rule:nonzero;stroke:none"
           id="path1211"
           inkscape:connector-curvature="0" /><path
           d="M 613.125,552.827 C 590.616,523.815 466.182,363.435 466.182,363.435 c 0,0 90.232,27.294 146.943,44.448 z"
           style="fill:none;stroke:#684481;stroke-width:1;stroke-linecap:butt;stroke-linejoin:miter;stroke-miterlimit:4;stroke-dasharray:none;stroke-opacity:1"
           id="path1213"
           inkscape:connector-curvature="0" /><path
           d="m 0.164,247.021 c 8.822,2.067 14.316,3.355 14.316,3.355 0,0 -5.986,11.645 -14.316,27.852 z"
           style="fill:#8e3a9c;fill-opacity:1;fill-rule:nonzero;stroke:none"
           id="path1215"
           inkscape:connector-curvature="0" /><path
           d="m 0.164,247.021 c 8.822,2.067 14.316,3.355 14.316,3.355 0,0 -5.986,11.645 -14.316,27.852 z"
           style="fill:none;stroke:#8e3a9c;stroke-width:1;stroke-linecap:butt;stroke-linejoin:miter;stroke-miterlimit:4;stroke-dasharray:none;stroke-opacity:1"
           id="path1217"
           inkscape:connector-curvature="0" /><path
           d="M 0.164,278.228 C 8.494,262.021 14.48,250.376 14.48,250.376 l 50.201,115.992 c 0,0 -33.638,2.905 -64.517,5.573 z"
           style="fill:#98389e;fill-opacity:1;fill-rule:nonzero;stroke:none"
           id="path1219"
           inkscape:connector-curvature="0" /><path
           d="M 0.164,278.228 C 8.494,262.021 14.48,250.376 14.48,250.376 l 50.201,115.992 c 0,0 -33.638,2.905 -64.517,5.573 z"
           style="fill:none;stroke:#98389e;stroke-width:1;stroke-linecap:butt;stroke-linejoin:miter;stroke-miterlimit:4;stroke-dasharray:none;stroke-opacity:1"
           id="path1221"
           inkscape:connector-curvature="0" /><path
           d="M 64.681,366.368 14.48,250.376 175.042,220.534 Z"
           style="fill:#8c2a92;fill-opacity:1;fill-rule:nonzero;stroke:none"
           id="path1223"
           inkscape:connector-curvature="0" /><path
           d="M 64.681,366.368 14.48,250.376 175.042,220.534 Z"
           style="fill:none;stroke:#8c2a92;stroke-width:1;stroke-linecap:butt;stroke-linejoin:miter;stroke-miterlimit:4;stroke-dasharray:none;stroke-opacity:1"
           id="path1225"
           inkscape:connector-curvature="0" /><path
           d="M 64.681,366.368 175.042,220.534 235.394,408.587 Z"
           style="fill:#932b96;fill-opacity:1;fill-rule:nonzero;stroke:none"
           id="path1227"
           inkscape:connector-curvature="0" /><path
           d="M 64.681,366.368 175.042,220.534 235.394,408.587 Z"
           style="fill:none;stroke:#932b96;stroke-width:1;stroke-linecap:butt;stroke-linejoin:miter;stroke-miterlimit:4;stroke-dasharray:none;stroke-opacity:1"
           id="path1229"
           inkscape:connector-curvature="0" /><path
           d="m 235.394,408.587 -60.352,-188.053 138.753,42.74 z"
           style="fill:#852989;fill-opacity:1;fill-rule:nonzero;stroke:none"
           id="path1231"
           inkscape:connector-curvature="0" /><path
           d="m 235.394,408.587 -60.352,-188.053 138.753,42.74 z"
           style="fill:none;stroke:#852989;stroke-width:1;stroke-linecap:butt;stroke-linejoin:miter;stroke-miterlimit:4;stroke-dasharray:none;stroke-opacity:1"
           id="path1233"
           inkscape:connector-curvature="0" /><path
           d="M 235.394,408.587 313.795,263.274 336.91,384.112 Z"
           style="fill:#862e90;fill-opacity:1;fill-rule:nonzero;stroke:none"
           id="path1235"
           inkscape:connector-curvature="0" /><path
           d="M 235.394,408.587 313.795,263.274 336.91,384.112 Z"
           style="fill:none;stroke:#862e90;stroke-width:1;stroke-linecap:butt;stroke-linejoin:miter;stroke-miterlimit:4;stroke-dasharray:none;stroke-opacity:1"
           id="path1237"
           inkscape:connector-curvature="0" /><path
           d="M 336.91,384.112 313.795,263.274 466.182,363.435 Z"
           style="fill:#7d2e85;fill-opacity:1;fill-rule:nonzero;stroke:none"
           id="path1239"
           inkscape:connector-curvature="0" /><path
           d="M 336.91,384.112 313.795,263.274 466.182,363.435 Z"
           style="fill:none;stroke:#7d2e85;stroke-width:1;stroke-linecap:butt;stroke-linejoin:miter;stroke-miterlimit:4;stroke-dasharray:none;stroke-opacity:1"
           id="path1241"
           inkscape:connector-curvature="0" /><path
           d="M 466.182,363.435 313.795,263.274 475.531,200.614 Z"
           style="fill:#6d2571;fill-opacity:1;fill-rule:nonzero;stroke:none"
           id="path1243"
           inkscape:connector-curvature="0" /><path
           d="M 466.182,363.435 313.795,263.274 475.531,200.614 Z"
           style="fill:none;stroke:#6d2571;stroke-width:1;stroke-linecap:butt;stroke-linejoin:miter;stroke-miterlimit:4;stroke-dasharray:none;stroke-opacity:1"
           id="path1245"
           inkscape:connector-curvature="0" /><path
           d="m 613.125,270.565 c -51.183,32.348 -146.943,92.87 -146.943,92.87 l 9.349,-162.821 c 0,0 88.718,26.303 137.594,40.793 z"
           style="fill:#602463;fill-opacity:1;fill-rule:nonzero;stroke:none"
           id="path1247"
           inkscape:connector-curvature="0" /><path
           d="m 613.125,270.565 c -51.183,32.348 -146.943,92.87 -146.943,92.87 l 9.349,-162.821 c 0,0 88.718,26.303 137.594,40.793 z"
           style="fill:none;stroke:#602463;stroke-width:1;stroke-linecap:butt;stroke-linejoin:miter;stroke-miterlimit:4;stroke-dasharray:none;stroke-opacity:1"
           id="path1249"
           inkscape:connector-curvature="0" /><path
           d="m 613.125,407.883 c -56.711,-17.154 -146.943,-44.448 -146.943,-44.448 0,0 95.76,-60.522 146.943,-92.87 z"
           style="fill:#662f6e;fill-opacity:1;fill-rule:nonzero;stroke:none"
           id="path1251"
           inkscape:connector-curvature="0" /><path
           d="m 613.125,407.883 c -56.711,-17.154 -146.943,-44.448 -146.943,-44.448 0,0 95.76,-60.522 146.943,-92.87 z"
           style="fill:none;stroke:#662f6e;stroke-width:1;stroke-linecap:butt;stroke-linejoin:miter;stroke-miterlimit:4;stroke-dasharray:none;stroke-opacity:1"
           id="path1253"
           inkscape:connector-curvature="0" /><path
           d="m 0.164,235.39 c 8.799,9.212 14.316,14.986 14.316,14.986 0,0 -5.494,-1.288 -14.316,-3.355 z"
           style="fill:#79388a;fill-opacity:1;fill-rule:nonzero;stroke:none"
           id="path1255"
           inkscape:connector-curvature="0" /><path
           d="m 0.164,235.39 c 8.799,9.212 14.316,14.986 14.316,14.986 0,0 -5.494,-1.288 -14.316,-3.355 z"
           style="fill:none;stroke:#79388a;stroke-width:1;stroke-linecap:butt;stroke-linejoin:miter;stroke-miterlimit:4;stroke-dasharray:none;stroke-opacity:1"
           id="path1257"
           inkscape:connector-curvature="0" /><path
           d="M 0.164,85.396 C 43.329,76.763 81.549,69.118 81.549,69.118 L 14.48,250.376 c 0,0 -5.517,-5.774 -14.316,-14.986 z"
           style="fill:#6c3078;fill-opacity:1;fill-rule:nonzero;stroke:none"
           id="path1259"
           inkscape:connector-curvature="0" /><path
           d="M 0.164,85.396 C 43.329,76.763 81.549,69.118 81.549,69.118 L 14.48,250.376 c 0,0 -5.517,-5.774 -14.316,-14.986 z"
           style="fill:none;stroke:#6c3078;stroke-width:1;stroke-linecap:butt;stroke-linejoin:miter;stroke-miterlimit:4;stroke-dasharray:none;stroke-opacity:1"
           id="path1261"
           inkscape:connector-curvature="0" /><path
           d="M 14.48,250.376 81.549,69.118 175.042,220.534 Z"
           style="fill:#74297b;fill-opacity:1;fill-rule:nonzero;stroke:none"
           id="path1263"
           inkscape:connector-curvature="0" /><path
           d="M 14.48,250.376 81.549,69.118 175.042,220.534 Z"
           style="fill:none;stroke:#74297b;stroke-width:1;stroke-linecap:butt;stroke-linejoin:miter;stroke-miterlimit:4;stroke-dasharray:none;stroke-opacity:1"
           id="path1265"
           inkscape:connector-curvature="0" /><path
           d="M 175.042,220.534 81.549,69.118 221.616,58.927 Z"
           style="fill:#602362;fill-opacity:1;fill-rule:nonzero;stroke:none"
           id="path1267"
           inkscape:connector-curvature="0" /><path
           d="M 175.042,220.534 81.549,69.118 221.616,58.927 Z"
           style="fill:none;stroke:#602362;stroke-width:1;stroke-linecap:butt;stroke-linejoin:miter;stroke-miterlimit:4;stroke-dasharray:none;stroke-opacity:1"
           id="path1269"
           inkscape:connector-curvature="0" /><path
           d="M 175.042,220.534 221.616,58.927 313.795,263.274 Z"
           style="fill:#69216c;fill-opacity:1;fill-rule:nonzero;stroke:none"
           id="path1271"
           inkscape:connector-curvature="0" /><path
           d="M 175.042,220.534 221.616,58.927 313.795,263.274 Z"
           style="fill:none;stroke:#69216c;stroke-width:1;stroke-linecap:butt;stroke-linejoin:miter;stroke-miterlimit:4;stroke-dasharray:none;stroke-opacity:1"
           id="path1273"
           inkscape:connector-curvature="0" /><path
           d="M 313.795,263.274 221.616,58.927 382.51,89.313 Z"
           style="fill:#542358;fill-opacity:1;fill-rule:nonzero;stroke:none"
           id="path1275"
           inkscape:connector-curvature="0" /><path
           d="M 313.795,263.274 221.616,58.927 382.51,89.313 Z"
           style="fill:none;stroke:#542358;stroke-width:1;stroke-linecap:butt;stroke-linejoin:miter;stroke-miterlimit:4;stroke-dasharray:none;stroke-opacity:1"
           id="path1277"
           inkscape:connector-curvature="0" /><path
           d="M 313.795,263.274 382.51,89.313 475.531,200.614 Z"
           style="fill:#57235b;fill-opacity:1;fill-rule:nonzero;stroke:none"
           id="path1279"
           inkscape:connector-curvature="0" /><path
           d="M 313.795,263.274 382.51,89.313 475.531,200.614 Z"
           style="fill:none;stroke:#57235b;stroke-width:1;stroke-linecap:butt;stroke-linejoin:miter;stroke-miterlimit:4;stroke-dasharray:none;stroke-opacity:1"
           id="path1281"
           inkscape:connector-curvature="0" /><path
           d="M 475.531,200.614 382.51,89.313 487.361,127.86 Z"
           style="fill:#431c44;fill-opacity:1;fill-rule:nonzero;stroke:none"
           id="path1283"
           inkscape:connector-curvature="0" /><path
           d="M 475.531,200.614 382.51,89.313 487.361,127.86 Z"
           style="fill:none;stroke:#431c44;stroke-width:1;stroke-linecap:butt;stroke-linejoin:miter;stroke-miterlimit:4;stroke-dasharray:none;stroke-opacity:1"
           id="path1285"
           inkscape:connector-curvature="0" /><path
           d="M 613.125,241.407 C 564.249,226.917 475.531,200.614 475.531,200.614 l 11.83,-72.754 c 0,0 79.902,62.459 125.764,98.309 z"
           style="fill:#481f4b;fill-opacity:1;fill-rule:nonzero;stroke:none"
           id="path1287"
           inkscape:connector-curvature="0" /><path
           d="M 613.125,241.407 C 564.249,226.917 475.531,200.614 475.531,200.614 l 11.83,-72.754 c 0,0 79.902,62.459 125.764,98.309 z"
           style="fill:none;stroke:#481f4b;stroke-width:1;stroke-linecap:butt;stroke-linejoin:miter;stroke-miterlimit:4;stroke-dasharray:none;stroke-opacity:1"
           id="path1289"
           inkscape:connector-curvature="0" /><path
           d="M 613.125,226.169 C 567.263,190.319 487.361,127.86 487.361,127.86 c 0,0 95.431,-31.271 125.764,-41.211 z"
           style="fill:#361736;fill-opacity:1;fill-rule:nonzero;stroke:none"
           id="path1291"
           inkscape:connector-curvature="0" /><path
           d="M 613.125,226.169 C 567.263,190.319 487.361,127.86 487.361,127.86 c 0,0 95.431,-31.271 125.764,-41.211 z"
           style="fill:none;stroke:#361736;stroke-width:1;stroke-linecap:butt;stroke-linejoin:miter;stroke-miterlimit:4;stroke-dasharray:none;stroke-opacity:1"
           id="path1293"
           inkscape:connector-curvature="0" /><path
           d="m 0.499,0.175 c 41.462,35.268 81.05,68.943 81.05,68.943 0,0 -38.22,7.645 -81.385,16.278 V 0.175 Z"
           style="fill:#543562;fill-opacity:1;fill-rule:nonzero;stroke:none"
           id="path1295"
           inkscape:connector-curvature="0" /><path
           d="m 0.499,0.175 c 41.462,35.268 81.05,68.943 81.05,68.943 0,0 -38.22,7.645 -81.385,16.278 V 0.175 Z"
           style="fill:none;stroke:#543562;stroke-width:1;stroke-linecap:butt;stroke-linejoin:miter;stroke-miterlimit:4;stroke-dasharray:none;stroke-opacity:1"
           id="path1297"
           inkscape:connector-curvature="0" /><path
           d="m 94.245,0.175 c -5.591,30.363 -12.696,68.943 -12.696,68.943 0,0 -39.588,-33.675 -81.05,-68.943 z"
           style="fill:#532c5d;fill-opacity:1;fill-rule:nonzero;stroke:none"
           id="path1299"
           inkscape:connector-curvature="0" /><path
           d="m 94.245,0.175 c -5.591,30.363 -12.696,68.943 -12.696,68.943 0,0 -39.588,-33.675 -81.05,-68.943 z"
           style="fill:none;stroke:#532c5d;stroke-width:1;stroke-linecap:butt;stroke-linejoin:miter;stroke-miterlimit:4;stroke-dasharray:none;stroke-opacity:1"
           id="path1301"
           inkscape:connector-curvature="0" /><path
           d="m 146.696,0.175 c 34.158,26.786 74.92,58.752 74.92,58.752 L 81.549,69.118 c 0,0 7.105,-38.58 12.696,-68.943 z"
           style="fill:#512353;fill-opacity:1;fill-rule:nonzero;stroke:none"
           id="path1303"
           inkscape:connector-curvature="0" /><path
           d="m 146.696,0.175 c 34.158,26.786 74.92,58.752 74.92,58.752 L 81.549,69.118 c 0,0 7.105,-38.58 12.696,-68.943 z"
           style="fill:none;stroke:#512353;stroke-width:1;stroke-linecap:butt;stroke-linejoin:miter;stroke-miterlimit:4;stroke-dasharray:none;stroke-opacity:1"
           id="path1305"
           inkscape:connector-curvature="0" /><path
           d="m 230.465,0.175 c -3.684,24.457 -8.849,58.752 -8.849,58.752 0,0 -40.762,-31.966 -74.92,-58.752 z"
           style="fill:#4b204c;fill-opacity:1;fill-rule:nonzero;stroke:none"
           id="path1307"
           inkscape:connector-curvature="0" /><path
           d="m 230.465,0.175 c -3.684,24.457 -8.849,58.752 -8.849,58.752 0,0 -40.762,-31.966 -74.92,-58.752 z"
           style="fill:none;stroke:#4b204c;stroke-width:1;stroke-linecap:butt;stroke-linejoin:miter;stroke-miterlimit:4;stroke-dasharray:none;stroke-opacity:1"
           id="path1309"
           inkscape:connector-curvature="0" /><path
           d="M 265.666,0.175 C 309.243,33.42 382.51,89.313 382.51,89.313 L 221.616,58.927 c 0,0 5.165,-34.295 8.849,-58.752 z"
           style="fill:#401a40;fill-opacity:1;fill-rule:nonzero;stroke:none"
           id="path1311"
           inkscape:connector-curvature="0" /><path
           d="M 265.666,0.175 C 309.243,33.42 382.51,89.313 382.51,89.313 L 221.616,58.927 c 0,0 5.165,-34.295 8.849,-58.752 z"
           style="fill:none;stroke:#401a40;stroke-width:1;stroke-linecap:butt;stroke-linejoin:miter;stroke-miterlimit:4;stroke-dasharray:none;stroke-opacity:1"
           id="path1313"
           inkscape:connector-curvature="0" /><path
           d="m 375.431,0.175 c 3.134,39.471 7.079,89.138 7.079,89.138 0,0 -73.267,-55.893 -116.844,-89.138 z"
           style="fill:#391838;fill-opacity:1;fill-rule:nonzero;stroke:none"
           id="path1315"
           inkscape:connector-curvature="0" /><path
           d="m 375.431,0.175 c 3.134,39.471 7.079,89.138 7.079,89.138 0,0 -73.267,-55.893 -116.844,-89.138 z"
           style="fill:none;stroke:#391838;stroke-width:1;stroke-linecap:butt;stroke-linejoin:miter;stroke-miterlimit:4;stroke-dasharray:none;stroke-opacity:1"
           id="path1317"
           inkscape:connector-curvature="0" /><path
           d="m 477.68,0.175 c -32.511,30.451 -95.17,89.138 -95.17,89.138 0,0 -3.945,-49.667 -7.079,-89.138 z"
           style="fill:#2d152b;fill-opacity:1;fill-rule:nonzero;stroke:none"
           id="path1319"
           inkscape:connector-curvature="0" /><path
           d="m 477.68,0.175 c -32.511,30.451 -95.17,89.138 -95.17,89.138 0,0 -3.945,-49.667 -7.079,-89.138 z"
           style="fill:none;stroke:#2d152b;stroke-width:1;stroke-linecap:butt;stroke-linejoin:miter;stroke-miterlimit:4;stroke-dasharray:none;stroke-opacity:1"
           id="path1321"
           inkscape:connector-curvature="0" /><path
           d="m 495.604,0.175 c -2.509,38.879 -8.243,127.685 -8.243,127.685 L 382.51,89.313 c 0,0 62.659,-58.687 95.17,-89.138 z"
           style="fill:#2c152a;fill-opacity:1;fill-rule:nonzero;stroke:none"
           id="path1323"
           inkscape:connector-curvature="0" /><path
           d="m 495.604,0.175 c -2.509,38.879 -8.243,127.685 -8.243,127.685 L 382.51,89.313 c 0,0 62.659,-58.687 95.17,-89.138 z"
           style="fill:none;stroke:#2c152a;stroke-width:1;stroke-linecap:butt;stroke-linejoin:miter;stroke-miterlimit:4;stroke-dasharray:none;stroke-opacity:1"
           id="path1325"
           inkscape:connector-curvature="0" /><path
           d="m 518.886,0.175 c 27.904,22.533 74.602,60.243 94.239,76.1 v 10.374 c -30.333,9.94 -125.764,41.211 -125.764,41.211 0,0 5.734,-88.806 8.243,-127.685 z"
           style="fill:#25151d;fill-opacity:1;fill-rule:nonzero;stroke:none"
           id="path1327"
           inkscape:connector-curvature="0" /><path
           d="m 518.886,0.175 c 27.904,22.533 74.602,60.243 94.239,76.1 v 10.374 c -30.333,9.94 -125.764,41.211 -125.764,41.211 0,0 5.734,-88.806 8.243,-127.685 z"
           style="fill:none;stroke:#25151d;stroke-width:1;stroke-linecap:butt;stroke-linejoin:miter;stroke-miterlimit:4;stroke-dasharray:none;stroke-opacity:1"
           id="path1329"
           inkscape:connector-curvature="0" /><path
           d="m 613.125,0.175 v 76.1 C 593.488,60.418 546.79,22.708 518.887,0.175 Z"
           style="fill:#271e1e;fill-opacity:1;fill-rule:nonzero;stroke:none"
           id="path1331"
           inkscape:connector-curvature="0" /><path
           d="m 613.125,0.175 v 76.1 C 593.488,60.418 546.79,22.708 518.887,0.175 Z"
           style="fill:none;stroke:#271e1e;stroke-width:1;stroke-linecap:butt;stroke-linejoin:miter;stroke-miterlimit:4;stroke-dasharray:none;stroke-opacity:1"
           id="path1333"
           inkscape:connector-curvature="0" /></g></g></g></svg>