<?xml version="1.0" encoding="UTF-8" standalone="no"?>
<!-- Created with Inkscape (http://www.inkscape.org/) -->

<svg
   xmlns:dc="http://purl.org/dc/elements/1.1/"
   xmlns:cc="http://creativecommons.org/ns#"
   xmlns:rdf="http://www.w3.org/1999/02/22-rdf-syntax-ns#"
   xmlns:svg="http://www.w3.org/2000/svg"
   xmlns="http://www.w3.org/2000/svg"
   xmlns:sodipodi="http://sodipodi.sourceforge.net/DTD/sodipodi-0.dtd"
   xmlns:inkscape="http://www.inkscape.org/namespaces/inkscape"
   version="1.1"
   id="svg68445"
   xml:space="preserve"
   width="793.70135"
   height="1122.52"
   viewBox="0 0 793.70135 1122.52"
   sodipodi:docname="low-poly-wall-publicdomainvectors.org.svg"
   inkscape:version="0.92.4 (5da689c313, 2019-01-14)"><metadata
     id="metadata68451"><rdf:RDF><cc:Work
         rdf:about=""><dc:format>image/svg+xml</dc:format><dc:type
           rdf:resource="http://purl.org/dc/dcmitype/StillImage" /><dc:title></dc:title></cc:Work></rdf:RDF></metadata><defs
     id="defs68449"><clipPath
       clipPathUnits="userSpaceOnUse"
       id="clipPath68461"><path
         d="M 0,841.89 H 595.276 V 0 H 0 Z"
         id="path68459"
         inkscape:connector-curvature="0" /></clipPath></defs><sodipodi:namedview
     pagecolor="#ffffff"
     bordercolor="#666666"
     borderopacity="1"
     objecttolerance="10"
     gridtolerance="10"
     guidetolerance="10"
     inkscape:pageopacity="0"
     inkscape:pageshadow="2"
     inkscape:window-width="797"
     inkscape:window-height="480"
     id="namedview68447"
     showgrid="false"
     inkscape:zoom="0.21024124"
     inkscape:cx="396.85068"
     inkscape:cy="561.26001"
     inkscape:window-x="0"
     inkscape:window-y="0"
     inkscape:window-maximized="0"
     inkscape:current-layer="g68453" /><g
     id="g68453"
     inkscape:groupmode="layer"
     inkscape:label="low-poly-wall-publicdomainvectors.org"
     transform="matrix(1.3333333,0,0,-1.3333333,0,1122.52)"><g
       id="g68455"><g
         id="g68457"
         clip-path="url(#clipPath68461)"><path
           d="m 385.827,-1.166 c -13.313,2.457 -21.263,3.924 -21.263,3.924 0,0 -23.22,-1.578 -57.754,-3.924 z"
           style="fill:#634290;fill-opacity:1;fill-rule:nonzero;stroke:none"
           id="path68463"
           inkscape:connector-curvature="0" /><path
           d="m 385.827,-1.166 c -13.313,2.457 -21.263,3.924 -21.263,3.924 0,0 -23.22,-1.578 -57.754,-3.924 z"
           style="fill:none;stroke:#634290;stroke-width:1.13199997;stroke-linecap:butt;stroke-linejoin:miter;stroke-miterlimit:4;stroke-dasharray:none;stroke-opacity:1"
           id="path68465"
           inkscape:connector-curvature="0" /><path
           d="m 595.699,827.255 c -74.264,-41.307 -173.4,-96.447 -173.4,-96.447 0,0 97.151,-29.063 173.4,-51.872 z"
           style="fill:#a37fa4;fill-opacity:1;fill-rule:nonzero;stroke:none"
           id="path68467"
           inkscape:connector-curvature="0" /><path
           d="m 595.699,827.255 c -74.264,-41.307 -173.4,-96.447 -173.4,-96.447 0,0 97.151,-29.063 173.4,-51.872 z"
           style="fill:none;stroke:#a37fa4;stroke-width:1.13199997;stroke-linecap:butt;stroke-linejoin:miter;stroke-miterlimit:4;stroke-dasharray:none;stroke-opacity:1"
           id="path68469"
           inkscape:connector-curvature="0" /><path
           d="M 595.699,590.258 C 508.539,530.239 389.308,448.136 389.308,448.136 c 0,0 113.589,10.23 206.392,18.589 z"
           style="fill:#947bb0;fill-opacity:1;fill-rule:nonzero;stroke:none"
           id="path68471"
           inkscape:connector-curvature="0" /><path
           d="M 595.699,590.258 C 508.539,530.239 389.308,448.136 389.308,448.136 c 0,0 113.589,10.23 206.392,18.589 z"
           style="fill:none;stroke:#947bb0;stroke-width:1.13199997;stroke-linecap:butt;stroke-linejoin:miter;stroke-miterlimit:4;stroke-dasharray:none;stroke-opacity:1"
           id="path68473"
           inkscape:connector-curvature="0" /><path
           d="M 595.699,405.95 C 496.635,346.121 371.313,270.435 371.313,270.435 c 0,0 130.237,-50.139 224.386,-86.384 z"
           style="fill:#795da0;fill-opacity:1;fill-rule:nonzero;stroke:none"
           id="path68475"
           inkscape:connector-curvature="0" /><path
           d="M 595.699,405.95 C 496.635,346.121 371.313,270.435 371.313,270.435 c 0,0 130.237,-50.139 224.386,-86.384 z"
           style="fill:none;stroke:#795da0;stroke-width:1.13199997;stroke-linecap:butt;stroke-linejoin:miter;stroke-miterlimit:4;stroke-dasharray:none;stroke-opacity:1"
           id="path68477"
           inkscape:connector-curvature="0" /><path
           d="M 595.699,466.725 C 502.896,458.366 389.308,448.136 389.308,448.136 L 371.313,270.435 c 0,0 125.322,75.686 224.386,135.515 z"
           style="fill:#9077b5;fill-opacity:1;fill-rule:nonzero;stroke:none"
           id="path68479"
           inkscape:connector-curvature="0" /><path
           d="M 595.699,466.725 C 502.896,458.366 389.308,448.136 389.308,448.136 L 371.313,270.435 c 0,0 125.322,75.686 224.386,135.515 z"
           style="fill:none;stroke:#9077b5;stroke-width:1.13199997;stroke-linecap:butt;stroke-linejoin:miter;stroke-miterlimit:4;stroke-dasharray:none;stroke-opacity:1"
           id="path68481"
           inkscape:connector-curvature="0" /><path
           d="m 595.699,678.936 c -76.249,22.809 -173.4,51.872 -173.4,51.872 L 389.308,448.136 c 0,0 119.231,82.103 206.391,142.122 z"
           style="fill:#a58dc0;fill-opacity:1;fill-rule:nonzero;stroke:none"
           id="path68483"
           inkscape:connector-curvature="0" /><path
           d="m 595.699,678.936 c -76.249,22.809 -173.4,51.872 -173.4,51.872 L 389.308,448.136 c 0,0 119.231,82.103 206.391,142.122 z"
           style="fill:none;stroke:#a58dc0;stroke-width:1.13199997;stroke-linecap:butt;stroke-linejoin:miter;stroke-miterlimit:4;stroke-dasharray:none;stroke-opacity:1"
           id="path68485"
           inkscape:connector-curvature="0" /><path
           d="M 595.699,-1.166 V 105.308 C 499.416,62.588 364.564,2.758 364.564,2.758 c 0,0 7.95,-1.467 21.263,-3.924 z"
           style="fill:#542a84;fill-opacity:1;fill-rule:nonzero;stroke:none"
           id="path68487"
           inkscape:connector-curvature="0" /><path
           d="M 595.699,-1.166 V 105.308 C 499.416,62.588 364.564,2.758 364.564,2.758 c 0,0 7.95,-1.467 21.263,-3.924 z"
           style="fill:none;stroke:#542a84;stroke-width:1.13199997;stroke-linecap:butt;stroke-linejoin:miter;stroke-miterlimit:4;stroke-dasharray:none;stroke-opacity:1"
           id="path68489"
           inkscape:connector-curvature="0" /><path
           d="M 595.699,184.051 C 501.55,220.296 371.313,270.435 371.313,270.435 L 364.564,2.758 c 0,0 134.852,59.83 231.135,102.55 z"
           style="fill:#6c509b;fill-opacity:1;fill-rule:nonzero;stroke:none"
           id="path68491"
           inkscape:connector-curvature="0" /><path
           d="M 595.699,184.051 C 501.55,220.296 371.313,270.435 371.313,270.435 L 364.564,2.758 c 0,0 134.852,59.83 231.135,102.55 z"
           style="fill:none;stroke:#6c509b;stroke-width:1.13199997;stroke-linecap:butt;stroke-linejoin:miter;stroke-miterlimit:4;stroke-dasharray:none;stroke-opacity:1"
           id="path68493"
           inkscape:connector-curvature="0" /><path
           d="M 595.699,841.171 H 393.896 c 13.8,-53.623 28.403,-110.363 28.403,-110.363 0,0 99.136,55.14 173.4,96.447 z"
           style="fill:#b1839e;fill-opacity:1;fill-rule:nonzero;stroke:none"
           id="path68495"
           inkscape:connector-curvature="0" /><path
           d="M 595.699,841.171 H 393.896 c 13.8,-53.623 28.403,-110.363 28.403,-110.363 0,0 99.136,55.14 173.4,96.447 z"
           style="fill:none;stroke:#b1839e;stroke-width:1.13199997;stroke-linecap:butt;stroke-linejoin:miter;stroke-miterlimit:4;stroke-dasharray:none;stroke-opacity:1"
           id="path68497"
           inkscape:connector-curvature="0" /><path
           d="m 306.81,-1.166 c 34.534,2.346 57.754,3.924 57.754,3.924 L 153.123,28.251 c 0,0 -44.967,-15.702 -84.24,-29.417 z"
           style="fill:#785ba3;fill-opacity:1;fill-rule:nonzero;stroke:none"
           id="path68499"
           inkscape:connector-curvature="0" /><path
           d="m 306.81,-1.166 c 34.534,2.346 57.754,3.924 57.754,3.924 L 153.123,28.251 c 0,0 -44.967,-15.702 -84.24,-29.417 z"
           style="fill:none;stroke:#785ba3;stroke-width:1.13199997;stroke-linecap:butt;stroke-linejoin:miter;stroke-miterlimit:4;stroke-dasharray:none;stroke-opacity:1"
           id="path68501"
           inkscape:connector-curvature="0" /><path
           d="M 256.594,648.33 389.308,448.136 422.299,730.808 Z"
           style="fill:#b1a5cb;fill-opacity:1;fill-rule:nonzero;stroke:none"
           id="path68503"
           inkscape:connector-curvature="0" /><path
           d="M 256.594,648.33 389.308,448.136 422.299,730.808 Z"
           style="fill:none;stroke:#b1a5cb;stroke-width:1.13199997;stroke-linecap:butt;stroke-linejoin:miter;stroke-miterlimit:4;stroke-dasharray:none;stroke-opacity:1"
           id="path68505"
           inkscape:connector-curvature="0" /><path
           d="M 186.113,257.688 153.123,28.251 364.564,2.758 Z"
           style="fill:#7e6aa9;fill-opacity:1;fill-rule:nonzero;stroke:none"
           id="path68507"
           inkscape:connector-curvature="0" /><path
           d="M 186.113,257.688 153.123,28.251 364.564,2.758 Z"
           style="fill:none;stroke:#7e6aa9;stroke-width:1.13199997;stroke-linecap:butt;stroke-linejoin:miter;stroke-miterlimit:4;stroke-dasharray:none;stroke-opacity:1"
           id="path68509"
           inkscape:connector-curvature="0" /><path
           d="M 186.113,257.688 364.564,2.758 371.313,270.435 Z"
           style="fill:#8172ac;fill-opacity:1;fill-rule:nonzero;stroke:none"
           id="path68511"
           inkscape:connector-curvature="0" /><path
           d="M 186.113,257.688 364.564,2.758 371.313,270.435 Z"
           style="fill:none;stroke:#8172ac;stroke-width:1.13199997;stroke-linecap:butt;stroke-linejoin:miter;stroke-miterlimit:4;stroke-dasharray:none;stroke-opacity:1"
           id="path68513"
           inkscape:connector-curvature="0" /><path
           d="M 332.821,841.171 C 299.792,757.612 256.594,648.33 256.594,648.33 l 165.705,82.478 c 0,0 -14.603,56.74 -28.403,110.363 z"
           style="fill:#bba1b7;fill-opacity:1;fill-rule:nonzero;stroke:none"
           id="path68515"
           inkscape:connector-curvature="0" /><path
           d="M 332.821,841.171 C 299.792,757.612 256.594,648.33 256.594,648.33 l 165.705,82.478 c 0,0 -14.603,56.74 -28.403,110.363 z"
           style="fill:none;stroke:#bba1b7;stroke-width:1.13199997;stroke-linecap:butt;stroke-linejoin:miter;stroke-miterlimit:4;stroke-dasharray:none;stroke-opacity:1"
           id="path68517"
           inkscape:connector-curvature="0" /><path
           d="m 170.063,841.171 c 38.027,-84.747 86.531,-192.841 86.531,-192.841 0,0 43.198,109.282 76.227,192.841 z"
           style="fill:#c6aab0;fill-opacity:1;fill-rule:nonzero;stroke:none"
           id="path68519"
           inkscape:connector-curvature="0" /><path
           d="m 170.063,841.171 c 38.027,-84.747 86.531,-192.841 86.531,-192.841 0,0 43.198,109.282 76.227,192.841 z"
           style="fill:none;stroke:#c6aab0;stroke-width:1.13199997;stroke-linecap:butt;stroke-linejoin:miter;stroke-miterlimit:4;stroke-dasharray:none;stroke-opacity:1"
           id="path68521"
           inkscape:connector-curvature="0" /><path
           d="m 198.11,435.389 -11.997,-177.701 185.2,12.747 z"
           style="fill:#9c92c1;fill-opacity:1;fill-rule:nonzero;stroke:none"
           id="path68523"
           inkscape:connector-curvature="0" /><path
           d="m 198.11,435.389 -11.997,-177.701 185.2,12.747 z"
           style="fill:none;stroke:#9c92c1;stroke-width:1.13199997;stroke-linecap:butt;stroke-linejoin:miter;stroke-miterlimit:4;stroke-dasharray:none;stroke-opacity:1"
           id="path68525"
           inkscape:connector-curvature="0" /><path
           d="M 198.11,435.389 371.313,270.435 389.308,448.136 Z"
           style="fill:#9d92c1;fill-opacity:1;fill-rule:nonzero;stroke:none"
           id="path68527"
           inkscape:connector-curvature="0" /><path
           d="M 198.11,435.389 371.313,270.435 389.308,448.136 Z"
           style="fill:none;stroke:#9d92c1;stroke-width:1.13199997;stroke-linecap:butt;stroke-linejoin:miter;stroke-miterlimit:4;stroke-dasharray:none;stroke-opacity:1"
           id="path68529"
           inkscape:connector-curvature="0" /><path
           d="M 256.594,648.33 198.11,435.389 389.308,448.136 Z"
           style="fill:#afa8cd;fill-opacity:1;fill-rule:nonzero;stroke:none"
           id="path68531"
           inkscape:connector-curvature="0" /><path
           d="M 256.594,648.33 198.11,435.389 389.308,448.136 Z"
           style="fill:none;stroke:#afa8cd;stroke-width:1.13199997;stroke-linecap:butt;stroke-linejoin:miter;stroke-miterlimit:4;stroke-dasharray:none;stroke-opacity:1"
           id="path68533"
           inkscape:connector-curvature="0" /><path
           d="M 0.256,841.171 V 620.517 c 16.361,41.872 55.922,143.121 86.217,220.654 z"
           style="fill:#decdcd;fill-opacity:1;fill-rule:nonzero;stroke:none"
           id="path68535"
           inkscape:connector-curvature="0" /><path
           d="M 0.256,841.171 V 620.517 c 16.361,41.872 55.922,143.121 86.217,220.654 z"
           style="fill:none;stroke:#decdcd;stroke-width:1.13199997;stroke-linecap:butt;stroke-linejoin:miter;stroke-miterlimit:4;stroke-dasharray:none;stroke-opacity:1"
           id="path68537"
           inkscape:connector-curvature="0" /><path
           d="M 28.657,178.959 153.123,28.251 186.113,257.688 Z"
           style="fill:#9184b8;fill-opacity:1;fill-rule:nonzero;stroke:none"
           id="path68539"
           inkscape:connector-curvature="0" /><path
           d="M 28.657,178.959 153.123,28.251 186.113,257.688 Z"
           style="fill:none;stroke:#9184b8;stroke-width:1.13199997;stroke-linecap:butt;stroke-linejoin:miter;stroke-miterlimit:4;stroke-dasharray:none;stroke-opacity:1"
           id="path68541"
           inkscape:connector-curvature="0" /><path
           d="M 0.256,594.972 C 37.385,565.025 198.11,435.389 198.11,435.389 l 58.484,212.941 c 0,0 -213.121,-38.143 -256.338,-45.878 z"
           style="fill:#c2bdda;fill-opacity:1;fill-rule:nonzero;stroke:none"
           id="path68543"
           inkscape:connector-curvature="0" /><path
           d="M 0.256,594.972 C 37.385,565.025 198.11,435.389 198.11,435.389 l 58.484,212.941 c 0,0 -213.121,-38.143 -256.338,-45.878 z"
           style="fill:none;stroke:#c2bdda;stroke-width:1.13199997;stroke-linecap:butt;stroke-linejoin:miter;stroke-miterlimit:4;stroke-dasharray:none;stroke-opacity:1"
           id="path68545"
           inkscape:connector-curvature="0" /><path
           d="M 86.473,841.171 C 56.178,763.638 16.617,662.389 0.256,620.517 v -18.065 c 43.217,7.735 256.338,45.878 256.338,45.878 0,0 -48.504,108.094 -86.531,192.841 z"
           style="fill:#d0c3d1;fill-opacity:1;fill-rule:nonzero;stroke:none"
           id="path68547"
           inkscape:connector-curvature="0" /><path
           d="M 86.473,841.171 C 56.178,763.638 16.617,662.389 0.256,620.517 v -18.065 c 43.217,7.735 256.338,45.878 256.338,45.878 0,0 -48.504,108.094 -86.531,192.841 z"
           style="fill:none;stroke:#d0c3d1;stroke-width:1.13199997;stroke-linecap:butt;stroke-linejoin:miter;stroke-miterlimit:4;stroke-dasharray:none;stroke-opacity:1"
           id="path68549"
           inkscape:connector-curvature="0" /><path
           d="m 28.657,178.959 157.456,78.729 11.997,177.701 z"
           style="fill:#a49ac7;fill-opacity:1;fill-rule:nonzero;stroke:none"
           id="path68551"
           inkscape:connector-curvature="0" /><path
           d="m 28.657,178.959 157.456,78.729 11.997,177.701 z"
           style="fill:none;stroke:#a49ac7;stroke-width:1.13199997;stroke-linecap:butt;stroke-linejoin:miter;stroke-miterlimit:4;stroke-dasharray:none;stroke-opacity:1"
           id="path68553"
           inkscape:connector-curvature="0" /><path
           d="m 0.256,236.973 c 16.855,-34.428 28.401,-58.014 28.401,-58.014 l 169.453,256.43 c 0,0 -106.336,21.656 -197.854,40.295 z"
           style="fill:#b9b4d7;fill-opacity:1;fill-rule:nonzero;stroke:none"
           id="path68555"
           inkscape:connector-curvature="0" /><path
           d="m 0.256,236.973 c 16.855,-34.428 28.401,-58.014 28.401,-58.014 l 169.453,256.43 c 0,0 -106.336,21.656 -197.854,40.295 z"
           style="fill:none;stroke:#b9b4d7;stroke-width:1.13199997;stroke-linecap:butt;stroke-linejoin:miter;stroke-miterlimit:4;stroke-dasharray:none;stroke-opacity:1"
           id="path68557"
           inkscape:connector-curvature="0" /><path
           d="m 0.256,475.684 c 91.518,-18.639 197.854,-40.295 197.854,-40.295 0,0 -160.725,129.636 -197.854,159.583 z"
           style="fill:#cac8e1;fill-opacity:1;fill-rule:nonzero;stroke:none"
           id="path68559"
           inkscape:connector-curvature="0" /><path
           d="m 0.256,475.684 c 91.518,-18.639 197.854,-40.295 197.854,-40.295 0,0 -160.725,129.636 -197.854,159.583 z"
           style="fill:none;stroke:#cac8e1;stroke-width:1.13199997;stroke-linecap:butt;stroke-linejoin:miter;stroke-miterlimit:4;stroke-dasharray:none;stroke-opacity:1"
           id="path68561"
           inkscape:connector-curvature="0" /><path
           d="m 68.883,-1.166 c 39.273,13.715 84.24,29.417 84.24,29.417 L 28.657,178.959 c 0,0 -11.146,-129.389 -15.516,-180.125 z"
           style="fill:#8c75b3;fill-opacity:1;fill-rule:nonzero;stroke:none"
           id="path68563"
           inkscape:connector-curvature="0" /><path
           d="m 68.883,-1.166 c 39.273,13.715 84.24,29.417 84.24,29.417 L 28.657,178.959 c 0,0 -11.146,-129.389 -15.516,-180.125 z"
           style="fill:none;stroke:#8c75b3;stroke-width:1.13199997;stroke-linecap:butt;stroke-linejoin:miter;stroke-miterlimit:4;stroke-dasharray:none;stroke-opacity:1"
           id="path68565"
           inkscape:connector-curvature="0" /><path
           d="m 0.256,183.571 c 17.686,-2.872 28.401,-4.612 28.401,-4.612 0,0 -11.546,23.586 -28.401,58.014 z"
           style="fill:#bfbbda;fill-opacity:1;fill-rule:nonzero;stroke:none"
           id="path68567"
           inkscape:connector-curvature="0" /><path
           d="m 0.256,183.571 c 17.686,-2.872 28.401,-4.612 28.401,-4.612 0,0 -11.546,23.586 -28.401,58.014 z"
           style="fill:none;stroke:#bfbbda;stroke-width:1.13199997;stroke-linecap:butt;stroke-linejoin:miter;stroke-miterlimit:4;stroke-dasharray:none;stroke-opacity:1"
           id="path68569"
           inkscape:connector-curvature="0" /><path
           d="m 13.141,-1.166 c 4.37,50.736 15.516,180.125 15.516,180.125 0,0 -10.828,-9.201 -28.401,-24.134 V -1.166 Z"
           style="fill:#937bb7;fill-opacity:1;fill-rule:nonzero;stroke:none"
           id="path68571"
           inkscape:connector-curvature="0" /><path
           d="m 13.141,-1.166 c 4.37,50.736 15.516,180.125 15.516,180.125 0,0 -10.828,-9.201 -28.401,-24.134 V -1.166 Z"
           style="fill:none;stroke:#937bb7;stroke-width:1.13199997;stroke-linecap:butt;stroke-linejoin:miter;stroke-miterlimit:4;stroke-dasharray:none;stroke-opacity:1"
           id="path68573"
           inkscape:connector-curvature="0" /><path
           d="m 0.256,154.825 c 17.573,14.933 28.401,24.134 28.401,24.134 0,0 -10.715,1.74 -28.401,4.612 z"
           style="fill:#a799c6;fill-opacity:1;fill-rule:nonzero;stroke:none"
           id="path68575"
           inkscape:connector-curvature="0" /><path
           d="m 0.256,154.825 c 17.573,14.933 28.401,24.134 28.401,24.134 0,0 -10.715,1.74 -28.401,4.612 z"
           style="fill:none;stroke:#a799c6;stroke-width:1.13199997;stroke-linecap:butt;stroke-linejoin:miter;stroke-miterlimit:4;stroke-dasharray:none;stroke-opacity:1"
           id="path68577"
           inkscape:connector-curvature="0" /></g></g></g></svg>